<svg version="1.1" id="layer" x="0" y="0" xml:space="preserve" xmlns="http://www.w3.org/2000/svg" viewBox="-136 193 611 164"><style type="text/css" id="style2">.st0{fill:#d9272e}</style><g id="g14" transform="translate(151.938 -198.3)"><path class="st0" d="M406.3 252.4c-15.9 0-28.5 14.2-28.5 33.8 0 19.6 12.5 35.6 28.5 35.6 15.7 0 26.7-16.3 26.7-35.6s-11-33.8-26.7-33.8m-.9 99c-34.2 0-63.1-29.4-63.1-64.3 0-35.3 29.5-64.5 64.2-64.5 34 0 62.6 29 62.6 64 0 16.9-6.8 33.1-19.1 45.5-12.2 12.3-28.4 19.3-44.6 19.3" id="path4"/><path class="st0" d="M20.7 350.7c-11.8 0-17.2-11.4-17.2-19.5v-59.3c0-1.5.4-14.8-15.4-14.8-13.3 0-17 4.3-17.2 15.2v61c0 1.1-.6 7.5-4.8 12.1-2.8 3.1-6.8 4.6-11.9 4.6-12.4 0-18.1-9.4-18.1-15.3v-63.5c0-4.4-2.2-14.3-16.2-14.3-13.2 0-16.4 7.4-16.4 14.3v66.2c-.6 4.7-6.9 13.5-18.4 13.5-10.1 0-16.3-8.6-16.3-16.6v-89.7c0-1.4-.4-6.6 3.1-10.7 2.8-3.3 7.1-4.9 12.7-4.9h.7c2.1 0 8.3.5 12.9 6.5 4.2-4.1 13-11 28.1-11.3 19.6-.4 29.3 6.3 35.6 12.8 4.5-4.5 14.9-12.8 30.4-12.8 19.5 0 29.6 9.3 35.4 16.3 4.9 5.9 10.1 17.8 10.1 30.2v61.1c.1 6.5-3.6 18.9-17.1 18.9" id="path6"/><path class="st0" d="M120.2 291.4c-1.9.4-4.4.8-7.6 1.4-5.7 1-12.9 2.1-20.9 4.1-5.6 1.3-12 7.4-12.3 14-.1 2.8.9 5.5 2.8 7.6 3.1 3.2 8.2 4.9 14.8 4.9h1.2c16.6-.5 20-9 21.3-15.3 1-5.9.9-12.5.7-16.7M90 350.7c-12.3 0-23.1-4.2-32.3-12.5l-.1-.1c-.6-.6-15-14.6-9.9-36.7v-.1c4.3-16.7 20.9-26.7 52-31.6l.6-.1c9-1.9 16.9-3.6 19-8.5 1.9-5 1.6-8.6-5.7-11.9-12.9-4.1-22.8-1.1-29.3 8.8-3.3 5-10 8.5-16.4 8.5-6.7 0-11.7-3.8-13.3-10-1.7-6.7-.5-13 3.6-18.3 7.6-9.8 24.9-15.9 45.3-15.9 29.4 0 48.4 12.5 48.4 31.8 0 16 1.2 75.7 1.3 78.4.1 1.1.4 8-3.8 12.7-2.6 2.9-6.2 4.4-10.7 4.5h-.8c-9.8 0-14.5-4.2-16.6-7.4-5.5 3-17.4 8.4-31.3 8.4" id="path8"/><path class="st0" d="M179.7 350.6c-7.4 0-12.8-3.9-15.5-11.3-2-5.4-2-11.2-2-13.3V223.7c0-2-.8-14.6 4.4-20.4 2.8-3.2 6.5-4.9 11.2-5h1.6c5.3 0 17.4-.1 17.4 24.8v52.3l34.2-35.1s11.7-12.8 19.6-12.7c4.9.1 7.9 1.9 11 5.6 2.4 2.7 3.6 5.9 3.1 9.2-.8 5.7-9.4 13.3-10.9 14.8l-20.3 20.6 30.5 43.9c.7.9 5.6 7.5 4.6 14.7-.5 3.9-2.6 7.3-6.2 9.9-3 2.2-6.1 3.3-9.3 3.4-9.4.1-16.6-12.3-17.2-12.9l-24.7-35-14.3 14-.4 17.9c0 5.8-3.5 16.9-16.8 16.9" id="path10"/><path class="st0" d="M295.6 350.5c-.6 0-6.1-.2-10.2-4.3-4.5-4.4-6.3-12.4-6.3-27.6v-72.9c-.1-1.3-.4-10.1 4.9-15.9 2.9-3.2 7-4.8 11.9-4.8 7.6 0 12.3 4.9 14.8 8.7 2.1-2.2 5.2-4.8 9.1-6.8 4.2-2.1 8.3-3.2 12.1-3.2 4.9 0 11.7 1.9 16.2 10.8l.1.3c1.6 4.2 1.3 8.3-.7 11.9-2 3.5-6.6 8-17.4 10-16.9 2.9-17.1 20.5-17.1 21.2 0 5.9.3 42.6.3 44.4.1 1.4.7 15.9-6.5 23.5-2.9 3.1-6.7 4.7-11.2 4.7z" id="path12"/></g></svg>