<svg xmlns="http://www.w3.org/2000/svg" fill="currentColor" viewBox="0 0 188 48" id="logos-nr-logo-white-horizontal"><g fill="#fff"><path fill-rule="evenodd" d="M25.412 3.107c-3.722-1.118-7.301 1.041-7.996 4.851-.232 1.275-.11 2.576.29 3.79l-1.81 1.836a2.68 2.68 0 0 0-.694 1.767c-.044 1.63 1.079 3.218 2.694 3.45.953.137 1.958-.284 2.502-.934l.415-.44c-1.907-1.43-2.639-3.115-3.115-5.664.812 2.185 2.52 3.958 4.16 4.839q.534.267 1.108.447c3.765 1.175 7.343-1.082 8.003-4.973.654-3.865-1.834-7.85-5.557-8.969m-5.699 3.735c-.187-.107-.286-.35-.134-.508.82-.85 4.204-.198 6.161 1.014 1.83 1.134 4.193 3.681 3.758 5.047-.076.235-.355.275-.552.134-.291-.209-.618-.48-1-.795-.8-.663-1.842-1.525-3.297-2.43-1.602-.996-2.74-1.476-3.628-1.851-.503-.213-.926-.391-1.308-.61" clip-rule="evenodd"/><path fill-rule="evenodd" d="m16.2 11.336-1.255 1.273-.014.016a4.1 4.1 0 0 0-1.066 2.688c-.06 2.244 1.472 4.52 3.847 4.862 1.127.161 2.496-.183 3.327-1.02q.164-.148.308-.31l.548-.552.113-.117q.28.11.572.2l.002.001c3.202 1 6.35-.091 8.191-2.508q3.178 1.812 6.352 3.634c.334.187.54.38.608.71.089.434-.201.818-.624.911-.846.197-1.697.379-2.548.56q-.72.153-1.44.31l2.44 11.8v.003l-.002-.002.851 4.121c.144.691-.285 1.369-.957 1.516L9.705 45.056c-.672.148-1.334-.293-1.478-.984L4.934 28.146l-1.005.219c-.992.215-1.984.43-2.972.656-.423.091-.85-.136-.94-.57-.065-.312.068-.628.236-.878 0 0 2.922-3.917 6.143-8.22l-1.39-6.717c-.143-.691.286-1.37.958-1.519l2.958-.645c.672-.146 1.332.295 1.475.986l.412 1.987 4.178-5.592c.274-.368.759-.375 1.016-.232l.103.057-.004.023a9 9 0 0 0 .098 3.635m11.822 13.648c.376.022.658.244.78.613.256.689.456 2.406.38 3.63-.094 1.533-.525 3.07-1.289 4.393-.747 1.29-1.76 2.434-3.017 3.219-1.267.79-2.725 1.275-4.216 1.293-1.497.02-2.995-.332-4.307-1.087a9.54 9.54 0 0 1-3.262-3.07 10.8 10.8 0 0 1-1.626-4.315l-.021-.135c-.052-.324-.11-.677.052-.972a.912.912 0 0 1 1.679.184c.063.216.09.444.119.671.018.15.036.298.064.443a8.27 8.27 0 0 0 2.033 4.028c1.013 1.09 2.34 1.873 3.787 2.155a6.47 6.47 0 0 0 4.296-.653c1.294-.697 2.34-1.825 3.006-3.157a8.3 8.3 0 0 0 .834-4.433c-.036-.4-.09-.796-.182-1.186-.081-.353-.143-.853 0-1.111.19-.344.474-.535.89-.51M83.409 14.378h-4.842v19.638h2.247v-8.82h2.889l5.135 8.82h2.755l-5.376-9.042q2.22-.36 3.477-1.692t1.257-3.495q0-1.83-.668-2.885a4.4 4.4 0 0 0-1.739-1.636q-1.07-.555-2.434-.722a22 22 0 0 0-2.701-.166m-.589 8.654h-2.006v-6.49h3.156q.83 0 1.632.11a4.1 4.1 0 0 1 1.47.472q.67.334 1.07.97.402.639.402 1.693 0 1.22-.562 1.886-.534.638-1.39.943a6.3 6.3 0 0 1-1.846.36 34 34 0 0 1-1.926.056" clip-rule="evenodd"/><path d="M82.98 12.991h2.435l2.942-3.994h-2.033l-2.06 2.83-2.086-2.83h-2.166zM44.914 14.378h-2.836v19.638h2.247v-16.31h.054l10.966 16.31h2.835V14.378h-2.247v16.31h-.053z"/><path fill-rule="evenodd" d="M69.369 33.767q1.338-.61 2.46-2.108l-1.577-1.276q-.75.97-1.685 1.47-.936.5-2.3.5-.856 0-1.579-.334a4.1 4.1 0 0 1-1.257-.887 5.2 5.2 0 0 1-.883-1.332 5 5 0 0 1-.374-1.608h10.11v-.694q0-1.61-.428-2.857-.427-1.275-1.23-2.136a4.9 4.9 0 0 0-1.872-1.331q-1.097-.471-2.407-.472-1.391 0-2.568.5a5.9 5.9 0 0 0-2.033 1.414q-.855.888-1.337 2.164-.482 1.248-.482 2.746 0 1.414.428 2.663a6.7 6.7 0 0 0 1.257 2.163q.83.915 2.006 1.47 1.178.528 2.648.527 1.766 0 3.103-.582m-.374-10.069q.99.999 1.043 2.663h-7.864q.214-1.664 1.284-2.663t2.808-.999q1.74 0 2.729.999" clip-rule="evenodd"/><path d="M75.913 36.929q0 .5-.16 1.137-.135.666-.535 1.22-.402.583-1.15.971-.723.416-1.873.416-.374 0-.722-.055a2.5 2.5 0 0 1-.722-.222l.24-1.886q.51.165 1.017.166.588 0 .936-.222.375-.221.562-.61.188-.36.24-.86a6.6 6.6 0 0 0 .08-1.054V21.035h2.087zM73.345 15.96q0-.639.428-1.11a1.47 1.47 0 0 1 1.097-.472q.642 0 1.07.472.454.471.454 1.11 0 .692-.427 1.136-.428.444-1.097.444-.668 0-1.097-.444t-.428-1.137"/><path fill-rule="evenodd" d="M103.852 31.659q-1.123 1.497-2.461 2.108-1.337.582-3.102.582-1.472 0-2.648-.527a6.3 6.3 0 0 1-2.006-1.47 6.7 6.7 0 0 1-1.257-2.163 8.2 8.2 0 0 1-.428-2.663q0-1.498.481-2.746.482-1.276 1.337-2.164a5.9 5.9 0 0 1 2.033-1.414q1.177-.5 2.568-.5 1.31 0 2.407.472 1.097.444 1.872 1.331.803.86 1.231 2.136.428 1.249.428 2.857v.694h-10.11a5 5 0 0 0 .374 1.608q.348.75.883 1.332.534.555 1.257.887a3.7 3.7 0 0 0 1.578.333q1.364 0 2.3-.5.936-.498 1.685-1.47zm-1.792-5.298q-.053-1.664-1.043-2.663t-2.728-.999q-1.74 0-2.809.999t-1.284 2.663z" clip-rule="evenodd"/><path d="M105.608 22.45q.054.777.054 1.664v9.902h2.086v-6.324q0-1.11.214-2.025.24-.915.696-1.58a3.3 3.3 0 0 1 1.203-1.027q.749-.36 1.765-.36 1.284 0 1.846.915.561.887.562 3.05v7.351h2.086v-7.489q0-.859.241-1.553.267-.721.695-1.22a3.3 3.3 0 0 1 1.043-.777 2.9 2.9 0 0 1 1.257-.278q.91 0 1.498.305.59.306.936.805.348.5.482 1.137.134.638.134 1.304v7.766h2.086V26.14q0-1.248-.241-2.247-.24-1.026-.802-1.72a3.4 3.4 0 0 0-1.471-1.081q-.91-.39-2.247-.389-1.445 0-2.354.666-.909.637-1.605 1.803a7 7 0 0 0-.428-.749 2.6 2.6 0 0 0-.695-.804q-.455-.39-1.15-.638-.67-.278-1.685-.278-.776 0-1.445.222-.668.195-1.203.555a4.3 4.3 0 0 0-.936.777q-.375.443-.589.915h-.053q0-.555-.027-1.082a21 21 0 0 1-.027-1.054h-1.979q0 .638.053 1.415"/><path fill-rule="evenodd" d="M137.747 31.659q-1.123 1.497-2.461 2.108-1.338.582-3.103.582-1.47 0-2.648-.527a6.3 6.3 0 0 1-2.006-1.47 6.7 6.7 0 0 1-1.257-2.163 8.2 8.2 0 0 1-.428-2.663q0-1.498.482-2.746.481-1.276 1.337-2.164a5.9 5.9 0 0 1 2.033-1.414q1.176-.5 2.568-.5 1.31 0 2.407.472 1.096.444 1.872 1.331.803.86 1.23 2.136.428 1.249.428 2.857v.694h-10.11q.053.831.374 1.608.348.75.883 1.332.536.555 1.257.887a3.7 3.7 0 0 0 1.578.333q1.364 0 2.301-.5.936-.498 1.685-1.47zm-1.792-5.298q-.054-1.664-1.044-2.663-.989-.999-2.728-.999-1.738 0-2.808.999t-1.284 2.663z" clip-rule="evenodd"/><path d="M141.399 31.88q-.723-.472-1.338-1.275l-1.658 1.331q.936 1.387 2.086 1.914 1.177.5 2.782.5.936 0 1.819-.223a4.9 4.9 0 0 0 1.605-.693 3.7 3.7 0 0 0 1.15-1.276q.428-.777.428-1.886 0-.97-.321-1.637a3.1 3.1 0 0 0-.883-1.11 4.3 4.3 0 0 0-1.311-.693 10.5 10.5 0 0 0-1.578-.444q-.615-.11-1.203-.277a6.6 6.6 0 0 1-1.017-.388 2.7 2.7 0 0 1-.695-.5 1.13 1.13 0 0 1-.241-.72q0-.445.214-.777.241-.36.589-.583.347-.222.775-.333a3.7 3.7 0 0 1 .883-.11q.936 0 1.578.443.668.416 1.07 1.11l1.739-1.193q-.642-1.248-1.793-1.803a5.5 5.5 0 0 0-2.46-.555q-.883 0-1.712.25a5.2 5.2 0 0 0-1.498.721 3.56 3.56 0 0 0-1.07 1.193q-.4.72-.401 1.664 0 .998.348 1.637.373.637.963 1.054.615.388 1.417.638a21 21 0 0 0 1.685.443q.509.112.99.25.481.14.856.388.374.222.588.555.241.333.241.86t-.241.915q-.24.36-.642.61-.4.25-.909.361a4.3 4.3 0 0 1-.963.111q-1.124 0-1.872-.471M149.784 13.047h2.086v20.97h-2.086zM153.97 22.45q.053.777.053 1.664v9.902h2.087v-6.324q0-1.11.214-2.025.24-.915.695-1.58a3.27 3.27 0 0 1 1.204-1.027q.748-.36 1.765-.36 1.471 0 2.166.942.696.945.696 2.58v7.794h2.086V26q0-1.164-.294-2.136-.267-.998-.856-1.692a4 4 0 0 0-1.498-1.081q-.882-.39-2.113-.389a4.6 4.6 0 0 0-1.444.222 4.3 4.3 0 0 0-1.204.555q-.534.332-.936.777-.375.443-.588.915h-.054q0-.555-.027-1.082a22 22 0 0 1-.026-1.054h-1.98q0 .638.054 1.415M167.201 21.035h2.086v12.981h-2.086zM170.087 13.934h2.778l-3.825 3.995h-1.638zM179.029 23.088q.776.36 1.444 1.192l1.659-1.525a5.74 5.74 0 0 0-2.193-1.553 6.9 6.9 0 0 0-2.622-.5q-1.444 0-2.648.527a5.9 5.9 0 0 0-2.032 1.415 6.6 6.6 0 0 0-1.338 2.164q-.454 1.248-.454 2.718 0 1.498.454 2.746a6.9 6.9 0 0 0 1.311 2.163 5.85 5.85 0 0 0 2.059 1.415q1.204.5 2.648.5 1.365 0 2.595-.5t2.14-1.581l-1.552-1.526q-1.124 1.61-3.183 1.61-.963 0-1.738-.362a4.2 4.2 0 0 1-1.338-1.053 5.5 5.5 0 0 1-.855-1.526 6 6 0 0 1-.295-1.886q0-.999.268-1.859.267-.887.775-1.553a3.56 3.56 0 0 1 1.338-1.026q.802-.39 1.845-.389.936 0 1.712.389M183.13 21.035h2.087v12.981h-2.087zM182.726 15.96q0-.607.406-1.054a1.4 1.4 0 0 1 1.041-.448q.61 0 1.016.448.432.448.432 1.053 0 .659-.406 1.08-.406.42-1.042.421-.635 0-1.041-.421t-.406-1.08"/></g></svg>